HIERARCHY
ROOT Hips
{
	OFFSET 0.00000 0.00000 0.00000
	CHANNELS 6 Xposition Yposition Zposition Zrotation Yrotation Xrotation 
	JOINT LHipJoint
	{
		OFFSET 0 0 0
		CHANNELS 3 Zrotation Yrotation Xrotation
		JOINT LeftHip
		{
			OFFSET 1.86795 -1.59681 0.65681
			CHANNELS 3 Zrotation Yrotation Xrotation
			JOINT LeftKnee
			{
				OFFSET 2.30491 -6.33268 0.00000
				CHANNELS 3 Zrotation Yrotation Xrotation
				JOINT LeftAnkle
				{
					OFFSET 2.46780 -6.78022 0.00000
					CHANNELS 3 Zrotation Yrotation Xrotation
					JOINT LeftToe
					{
						OFFSET 0.07897 -0.21698 1.59652
						CHANNELS 3 Zrotation Yrotation Xrotation
						End Site
						{
							OFFSET 0.00000 -0.00000 0.82310
						}
					}
				}
			}
		}
	}
	JOINT RHipJoint
	{
		OFFSET 0 0 0
		CHANNELS 3 Zrotation Yrotation Xrotation
		JOINT RightHip
		{
			OFFSET -1.93650 -1.59681 0.65681
			CHANNELS 3 Zrotation Yrotation Xrotation
			JOINT RightKnee
			{
				OFFSET -2.29410 -6.30299 0.00000
				CHANNELS 3 Zrotation Yrotation Xrotation
				JOINT RightAnkle
				{
					OFFSET -2.48738 -6.83403 0.00000
					CHANNELS 3 Zrotation Yrotation Xrotation
					JOINT RightToe
					{
						OFFSET -0.08699 -0.23899 1.89395
						CHANNELS 3 Zrotation Yrotation Xrotation
						End Site
						{
							OFFSET -0.00000 -0.00000 0.96904
						}
					}
				}
			}
		}
	}
	JOINT lowerback
	{
		OFFSET 0 0 0
		CHANNELS 3 Zrotation Yrotation Xrotation
		JOINT Chest
		{
			OFFSET 0.03629 1.99740 -0.07548
			CHANNELS 3 Zrotation Yrotation Xrotation
			JOINT Chest2
			{
				OFFSET 0.03970 1.94298 0.17218
				CHANNELS 3 Zrotation Yrotation Xrotation
				JOINT lowerneck
				{
					OFFSET 0 0 0
					CHANNELS 3 Zrotation Yrotation Xrotation
					JOINT Neck
					{
						OFFSET -0.05054 1.79469 0.04241
						CHANNELS 3 Zrotation Yrotation Xrotation
						JOINT Head
						{
							OFFSET 0.05195 1.78475 -0.22133
							CHANNELS 3 Zrotation Yrotation Xrotation
							End Site
							{
								OFFSET 0.02420 1.80711 -0.07950
							}
						}
					}
				}
				JOINT LeftCollar
				{
					OFFSET 0 0 0
					CHANNELS 3 Zrotation Yrotation Xrotation
					JOINT LeftShoulder
					{
						OFFSET 2.92134 1.19850 0.36056
CHANNELS 3 Zrotation Xrotation Yrotation
						JOINT LeftElbow
						{
OFFSET 0 -4.841370 0.000000
CHANNELS 3 Zrotation Xrotation Yrotation
							JOINT LeftWrist
							{
OFFSET 0 -3.245200 -0.000000
CHANNELS 3 Zrotation Xrotation Yrotation
								JOINT lhand
								{
									OFFSET 0 0 0
CHANNELS 3 Zrotation Xrotation Yrotation
									JOINT LFingers
									{
OFFSET 0 -0.521220 0.000000
CHANNELS 3 Zrotation Xrotation Yrotation
										End Site
										{
OFFSET 0 -0.420220 0.000000
										}
									}
								}
								JOINT LThumb
								{
OFFSET 0 0.000000 0.000000
CHANNELS 3 Zrotation Xrotation Yrotation
									End Site
									{
OFFSET 0 -0.426640 0.426640
									}
								}
							}
						}
					}
				}
				JOINT RightCollar
				{
					OFFSET 0 0 0
					CHANNELS 3 Zrotation Yrotation Xrotation
					JOINT RightShoulder
					{
						OFFSET -2.84327 1.20795 0.50191
CHANNELS 3 Zrotation Xrotation Yrotation
						JOINT RightElbow
						{
OFFSET 0 -4.722840 0.000000
CHANNELS 3 Zrotation Xrotation Yrotation
							JOINT RightWrist
							{
OFFSET 0 -3.234590 0.000000
CHANNELS 3 Zrotation Xrotation Yrotation
								JOINT rhand
								{
									OFFSET 0 0 0
CHANNELS 3 Zrotation Xrotation Yrotation
									JOINT RFingers
									{
OFFSET 0 -0.307420 0.000000
CHANNELS 3 Zrotation Xrotation Yrotation
										End Site
										{
OFFSET 0 -0.247850 0.000000
										}
									}
								}
								JOINT RThumb
								{
OFFSET 0 0.000000 0.000000
CHANNELS 3 Zrotation Xrotation Yrotation
									End Site
									{
OFFSET 0 -0.251630 0.251630
									}
								}
							}
						}
					}
				}
			}
		}
	}
}
MOTION
Frames: 5
Frame Time: 0.008333333333333333
7.987151 15.992455 -8.890178 3.128952 -1.409142 11.670442 0.000000 0.000000 0.000000 -11.491409 -19.140061 -22.558503 3.687485 11.732483 34.792044 0.891596 7.261441 -21.891670 0.609861 -4.995083 -13.895236 0.000000 0.000000 0.000000 18.803608 15.158335 -24.026541 -5.816129 -14.247829 44.239358 0.267738 -20.467960 -26.849925 -0.012343 -0.717037 1.970503 -3.156213 -2.765167 5.761707 1.798486 -3.926668 -7.109201 4.270361 -1.577907 -10.494806 -3.016426 1.762993 -4.011095 6.453460 1.946723 10.289103 2.792791 1.132109 3.982164 0.000000 0.000000 0.000000 63.723968 15.465046 17.178614 90.320084 -59.997581 60.277207 -59.641222 0.615447 -33.769642 0.000000 0.000000 0.000000 -7.125000 0.000000 0.000000 -78.557470 48.381472 15.808536 0.000000 0.000000 0.000000 -78.247466 13.672766 -8.822839 -90.058423 -59.998112 -60.050563 46.778513 2.386221 0.443719 0.000000 0.000000 0.000000 7.125000 0.000000 0.000000 44.099667 19.916204 41.633434
8.028072 16.022602 -8.905135 3.204229 -3.367811 12.205307 0.000000 0.000000 0.000000 -11.925852 -18.482890 -21.611092 3.300552 11.166253 32.842804 0.799811 8.719956 -22.216798 0.742812 -5.505394 -15.355847 0.000000 0.000000 0.000000 18.311992 16.541274 -23.601996 -5.390363 -13.810392 42.483073 0.444688 -21.155556 -26.460026 -0.043126 -1.307434 3.595583 -2.646180 -1.923501 3.384593 0.811529 -2.775232 -8.100288 2.685900 -1.104661 -10.347875 -3.986383 1.423825 -3.841012 8.979118 1.113871 13.260755 3.490714 0.858621 4.495801 0.000000 0.000000 0.000000 58.276625 9.870902 24.584429 111.584936 -58.164194 78.577824 -61.951892 2.384706 -34.436852 0.000000 0.000000 0.000000 -7.125000 0.000000 0.000000 -80.583262 48.469501 17.667323 0.000000 0.000000 0.000000 -70.080048 7.159791 -20.730585 -107.929578 -58.749221 -75.462253 41.527647 6.306509 0.359375 0.000000 0.000000 0.000000 7.125000 0.000000 0.000000 43.643364 23.351914 34.278359
7.967747 16.089817 -8.861811 3.281942 -1.964456 10.092579 0.000000 0.000000 0.000000 -12.765315 -19.374152 -17.133064 2.786205 10.340625 30.087134 0.592316 10.354121 -21.765299 1.046110 -6.504391 -18.255088 0.000000 0.000000 0.000000 19.525080 15.813218 -19.359429 -4.817671 -13.175454 40.028885 0.363137 -21.734164 -28.032390 -0.178553 -2.640059 7.283002 -0.909634 -1.177014 0.133305 -1.354230 -1.733630 -7.967547 -0.787318 -0.852411 -8.441596 -5.654617 0.343700 -3.270337 11.868938 -1.043454 18.365320 4.700077 -0.037651 6.115724 0.000000 0.000000 0.000000 66.957466 -6.088526 21.321320 75.614144 -59.173682 47.578429 -64.972890 4.414396 -33.409147 0.000000 0.000000 0.000000 -7.125000 0.000000 0.000000 -79.447667 47.685271 13.875802 0.000000 0.000000 0.000000 -75.240446 2.325392 -15.100914 -53.008002 -54.098511 -28.604909 36.551286 9.732536 -0.540595 0.000000 0.000000 0.000000 7.125000 0.000000 0.000000 42.079832 24.642898 29.549610
7.850567 16.143099 -8.812389 2.787933 -0.531376 7.125979 0.000000 0.000000 0.000000 -13.199456 -21.150603 -11.088445 2.288616 9.442985 27.191098 0.369592 12.200951 -21.539254 0.985668 -6.317876 -17.709960 0.000000 0.000000 0.000000 21.949504 14.875585 -13.752106 -4.141730 -12.346546 36.969357 0.632662 -23.343237 -28.531115 -0.266263 -3.314209 9.155245 0.735931 0.617332 -2.811588 -3.069903 0.674130 -8.053532 -3.648024 0.174458 -6.771942 -7.410279 -1.211104 -1.669255 13.422888 -4.085184 25.508264 5.587247 -1.433075 8.514479 0.000000 0.000000 0.000000 79.842039 -26.673128 17.344853 24.601207 -35.774612 8.063382 -69.620005 -7.090147 -35.433975 0.000000 0.000000 0.000000 -7.125000 0.000000 0.000000 -85.720112 48.275544 21.740178 0.000000 0.000000 0.000000 -82.107495 -0.981467 -10.422088 -18.366117 -28.614581 -4.727878 20.332885 3.127637 -6.907126 0.000000 0.000000 0.000000 7.125000 0.000000 0.000000 32.497094 22.222752 21.440425
7.720502 16.157172 -8.837390 2.515736 2.977728 6.735234 0.000000 0.000000 0.000000 -12.405515 -24.645860 -8.951198 1.964357 8.791386 25.144963 0.693871 11.017359 -23.331052 0.576393 -4.861487 -13.513926 0.000000 0.000000 0.000000 23.424395 14.348871 -12.465161 -3.936706 -12.075708 36.000319 0.475085 -24.126077 -30.924892 -0.695515 -5.327409 14.845697 1.036928 0.849986 -4.918812 -2.834151 1.007393 -8.984630 -3.557763 0.329834 -6.549707 -7.516796 -1.123347 -2.086183 11.021895 -3.634478 29.543444 4.947834 -1.376123 9.962234 0.000000 0.000000 0.000000 82.605416 -30.595005 6.836914 13.028774 -21.328964 2.463960 -63.450606 -2.134425 -38.786423 0.000000 0.000000 0.000000 -7.125000 0.000000 0.000000 -89.288136 49.843780 31.532931 0.000000 0.000000 0.000000 -92.679111 2.764076 25.689988 -11.676442 -19.317654 -1.993960 2.195503 -21.205098 -7.796449 0.000000 0.000000 0.000000 7.125000 0.000000 0.000000 20.781765 22.266662 12.164037
